Coordinates
version=1
nRows=49
nColumns=12
inDegrees=yes

Units are S.I. units (second, meters, Newtons, ...)
Angles are in degrees

endheader
time	SC_y	SC_z	SC_x	AC_y	AC_z	AC_x	GH_y	GH_z	GH_yy	EL_x	PS_y
       0.0              -37.26          1.399          46.85           51.1         -16.69          5.549         -132.0           37.8         -152.2          134.7          135.3
   0.01378              -37.26          1.404          46.85           51.1         -16.69          5.548         -132.0          37.79         -152.2          134.7          135.3
   0.02755              -37.25          1.409          46.85           51.1         -16.68          5.547         -131.9          37.78         -152.2          134.7          135.3
   0.04133              -37.25          1.414          46.85           51.1         -16.68          5.546         -131.9          37.77         -152.2          134.7          135.3
   0.05511              -37.25          1.419          46.85          51.09         -16.68          5.544         -131.8          37.76         -152.2          134.7          135.3
   0.06889              -37.25          1.425          46.84          51.09         -16.67          5.543         -131.8          37.75         -152.2          134.6          135.2
   0.08266              -37.25          1.431          46.84          51.09         -16.67          5.541         -131.7          37.74         -152.1          134.6          135.2
   0.09644              -37.25          1.438          46.84          51.08         -16.67           5.54         -131.6          37.73         -152.1          134.6          135.2
    0.1102              -37.25          1.445          46.84          51.08         -16.66          5.538         -131.6          37.71         -152.1          134.6          135.2
     0.124              -37.25          1.453          46.83          51.08         -16.66          5.536         -131.5           37.7         -152.1          134.5          135.2
    0.1378              -37.25          1.461          46.83          51.07         -16.65          5.534         -131.4          37.68         -152.1          134.5          135.1
    0.1516              -37.25           1.47          46.82          51.07         -16.65          5.532         -131.3          37.67         -152.1          134.5          135.1
    0.1653              -37.25          1.479          46.82          51.06         -16.64           5.53         -131.3          37.65         -152.0          134.4          135.1
    0.1791              -37.25           1.49          46.82          51.06         -16.64          5.527         -131.2          37.63         -152.0          134.4          135.1
    0.1929              -37.25          1.501          46.81          51.05         -16.63          5.524         -131.1          37.61         -152.0          134.4          135.0
    0.2067              -37.25          1.513          46.81          51.05         -16.62          5.521         -130.9          37.59         -152.0          134.3          135.0
    0.2204              -37.25          1.526           46.8          51.04         -16.61          5.518         -130.8          37.56         -151.9          134.3          134.9
    0.2342              -37.25           1.54           46.8          51.04         -16.61          5.515         -130.7          37.54         -151.9          134.2          134.9
     0.248              -37.25          1.556          46.79          51.03          -16.6          5.511         -130.5          37.51         -151.9          134.2          134.9
    0.2618              -37.25          1.573          46.78          51.02         -16.59          5.507         -130.4          37.48         -151.8          134.1          134.8
    0.2755              -37.24          1.592          46.78          51.01         -16.58          5.502         -130.2          37.44         -151.8          134.0          134.8
    0.2893              -37.24          1.612          46.77           51.0         -16.56          5.497         -130.0           37.4         -151.8          134.0          134.7
    0.3031              -37.24          1.635          46.76          50.99         -16.55          5.491         -129.8          37.36         -151.7          133.9          134.6
    0.3169              -37.24           1.66          46.75          50.98         -16.53          5.485         -129.5          37.32         -151.7          133.8          134.6
    0.3307              -37.24          1.689          46.74          50.97         -16.52          5.478         -129.3          37.26         -151.6          133.7          134.5
    0.3444              -37.24           1.72          46.72          50.95          -16.5          5.471         -129.0          37.21         -151.5          133.6          134.4
    0.3582              -37.23          1.755          46.71          50.93         -16.48          5.462         -128.6          37.14         -151.5          133.5          134.3
     0.372              -37.23          1.795          46.69          50.92         -16.46          5.453         -128.2          37.07         -151.4          133.3          134.2
    0.3858              -37.23          1.839          46.67          50.89         -16.43          5.442         -127.8          36.99         -151.3          133.2          134.0
    0.3995              -37.23           1.89          46.65          50.87          -16.4          5.429         -127.3          36.89         -151.2          133.0          133.9
    0.4133              -37.22          1.948          46.63          50.84         -16.36          5.415         -126.8          36.79         -151.0          132.8          133.7
    0.4271              -37.22          2.014           46.6          50.81         -16.32          5.399         -126.1          36.67         -150.9          132.5          133.5
    0.4409              -37.22          2.091          46.57          50.78         -16.28           5.38         -125.4          36.52         -150.7          132.3          133.3
    0.4547              -37.21           2.18          46.54          50.73         -16.23          5.358         -124.6          36.36         -150.6          131.9          133.1
    0.4684               -37.2          2.284          46.49          50.68         -16.16          5.333         -123.6          36.17         -150.3          131.6          132.8
    0.4822               -37.2          2.407          46.44          50.63         -16.09          5.303         -122.4          35.94         -150.1          131.1          132.4
     0.496              -37.19          2.553          46.38          50.56          -16.0          5.267         -121.0          35.67         -149.8          130.6          132.0
    0.5098              -37.18          2.728          46.31          50.47          -15.9          5.224         -119.3          35.35         -149.4          130.0          131.5
    0.5235              -37.17           2.94          46.23          50.37         -15.77          5.173         -117.3          34.96         -148.9          129.2          130.9
    0.5373              -37.15          3.198          46.12          50.25         -15.62           5.11         -114.8          34.49         -148.4          128.3          130.1
    0.5511              -37.13          3.517          45.99           50.1         -15.43          5.032         -111.8           33.9         -147.7          127.2          129.2
    0.5649              -37.11          3.915          45.83          49.91         -15.19          4.934         -108.0          33.17         -146.9          125.8          128.0
    0.5787              -37.08          4.417          45.62          49.68          -14.9          4.812         -103.2          32.25         -145.8          124.0          126.6
    0.5924              -37.04          5.054          45.36          49.38         -14.52          4.656         -97.09          31.07         -144.5          121.7          124.7
    0.6062              -36.99           5.87          45.03          48.99         -14.03          4.457         -89.29          29.57         -142.7          118.8          122.4
      0.62              -36.93          6.917           44.6          48.49         -13.41          4.201         -79.29          27.65         -140.5          115.0          119.4
    0.6338              -36.86          8.255          44.06          47.86         -12.61          3.874         -66.51          25.19         -137.7          110.3          115.5
    0.6475              -36.76          9.936          43.37          47.07         -11.61          3.463         -50.43          22.09         -134.1          104.3          110.6
    0.6613              -36.64          11.99          42.54           46.1         -10.39          2.962         -30.85          18.33         -129.8          96.96          104.7
